<svg xmlns="http://www.w3.org/2000/svg" xmlns:xlink="http://www.w3.org/1999/xlink" viewBox="0 0 113.39 41.11"><defs><style>.cls-1{fill:none;}.cls-2{fill:#c41718;}.cls-3{fill:#1d1d1b;}.cls-4{clip-path:url(#clip-path);}</style><clipPath id="clip-path"><rect class="cls-1" width="113.39" height="41.11"/></clipPath></defs><g id="Слой_2" data-name="Слой 2"><g id="Слой_1-2" data-name="Слой 1"><rect class="cls-2" x="88.29" width="3.34" height="20.56"/><rect class="cls-3" x="84.82" y="20.55" width="3.33" height="20.56"/><polygon class="cls-3" points="0 10.43 0 14.05 4.71 14.05 4.71 30.82 9.3 30.82 9.3 14.05 14 14.05 14 10.43 0 10.43"/><g class="cls-4"><path class="cls-3" d="M20,21.11v4.44c0,1.5.93,2.24,2.43,2.24a2.15,2.15,0,0,0,2.42-2.24V24.39h4.6V25c0,4.6-2.95,6.46-7,6.46s-7-1.83-7-6.46V16.37c0-4.63,2.95-6.46,7-6.46s7,1.86,7,6.46v4.74Zm4.85-3.36v-2a2.15,2.15,0,0,0-2.42-2.24c-1.5,0-2.43.74-2.43,2.24v2Z"/><polygon class="cls-3" points="37.52 18.2 41.93 18.2 41.93 10.43 46.52 10.43 46.52 30.82 41.93 30.82 41.93 21.82 37.52 21.82 37.52 30.82 32.93 30.82 32.93 10.43 37.52 10.43 37.52 18.2"/><path class="cls-3" d="M49.76,16.66c.22-4.59,3.29-6.75,6.8-6.75,3.95,0,6.76,2.2,6.76,5.56A4.56,4.56,0,0,1,60.07,20c2.27.67,3.69,2.46,3.69,5.45,0,4-2.76,6-7,6-3.66,0-7.17-1.71-7.17-7H54c0,1.75.48,3.43,2.39,3.43S59,26.67,59,24.66s-1-2.84-2.57-2.84H55.32V18.46h1c1.83,0,2.39-1,2.39-2.58s-.52-2.35-2.12-2.35-2.13,1.27-2.28,3.13Z"/><path class="cls-3" d="M81.23,16.55v8.22c0,3.55-1.87,6.64-7.21,6.64s-7.24-3.09-7.24-6.64V16.55c0-3.54,1.79-6.64,7.24-6.64s7.21,3.1,7.21,6.64M71.56,16v9.41a2.18,2.18,0,0,0,2.5,2.42c1.49,0,2.39-.52,2.39-2.42V16c0-1.91-.93-2.43-2.43-2.43A2.15,2.15,0,0,0,71.56,16"/><polygon class="cls-3" points="101.14 10.43 104.16 24.06 107.19 10.43 113.39 10.43 113.39 30.82 108.91 30.82 108.91 16.37 108.87 16.37 105.62 30.82 102.71 30.82 99.46 16.37 99.42 16.37 99.42 30.82 94.94 30.82 94.94 10.43 101.14 10.43"/></g></g></g></svg>