<?xml version="1.0" standalone="no"?>
<!DOCTYPE svg PUBLIC "-//W3C//DTD SVG 20010904//EN"
 "http://www.w3.org/TR/2001/REC-SVG-20010904/DTD/svg10.dtd">
<svg version="1.0" xmlns="http://www.w3.org/2000/svg"
 width="900.000000pt" height="516.000000pt" viewBox="0 0 900.000000 516.000000"
 preserveAspectRatio="xMidYMid meet">

<g transform="translate(0.000000,516.000000) scale(0.100000,-0.100000)"
fill="#000000" stroke="none">
<path d="M4559 4805 c-1 -8 -2 -20 -3 -25 -1 -6 10 -16 24 -23 38 -19 54 -60
38 -94 -36 -75 -184 -109 -374 -87 -57 6 -61 5 -67 -15 -3 -11 0 -24 6 -28 7
-4 69 -9 138 -11 98 -3 139 0 185 13 106 30 174 92 174 159 0 36 -39 89 -81
110 -39 19 -39 19 -40 1z"/>
<path d="M3718 4619 c-39 -6 -77 -21 -124 -49 -109 -68 -89 -67 -334 -16 -41
8 -104 21 -140 29 -36 7 -71 16 -78 21 -6 4 -12 3 -12 -3 0 -5 21 -20 48 -33
26 -12 63 -32 82 -44 19 -11 67 -38 105 -59 39 -20 89 -50 113 -66 24 -16 45
-29 48 -29 13 0 135 -100 190 -156 138 -140 137 -228 -6 -372 -78 -80 -157
-137 -173 -124 -6 5 -27 13 -45 17 -25 5 -85 29 -100 40 -1 1 5 19 14 41 10
23 17 70 18 114 0 61 -4 84 -23 120 -62 119 -194 173 -368 151 -100 -13 -185
-34 -258 -63 -88 -35 -180 -80 -183 -89 -2 -5 -8 -9 -13 -9 -9 0 -66 -36 -79
-50 -3 -3 -36 -30 -75 -60 -95 -74 -261 -242 -350 -355 -22 -27 -48 -59 -58
-70 -10 -11 -25 -32 -33 -47 -8 -16 -19 -28 -24 -28 -6 0 -10 -6 -10 -14 0 -8
-3 -16 -8 -18 -4 -1 -32 -34 -62 -73 -30 -38 -57 -72 -60 -75 -3 -3 -30 -36
-60 -74 -86 -109 -257 -289 -366 -387 -74 -65 -249 -189 -339 -240 -128 -72
-313 -159 -407 -192 -14 -5 -15 -11 -6 -41 12 -37 25 -43 56 -26 9 5 35 17 57
26 89 37 314 151 370 188 146 95 225 150 225 158 0 4 7 8 15 8 8 0 15 4 15 8
0 4 21 24 48 44 112 87 286 272 452 483 83 106 83 106 113 140 15 18 27 38 27
44 0 6 4 11 9 11 4 0 20 17 34 38 14 20 37 49 51 64 14 15 26 29 26 32 0 9 84
101 185 201 94 95 145 139 219 192 17 12 37 28 45 34 20 18 203 109 218 109 7
0 21 4 31 10 31 17 142 40 227 46 91 7 161 -8 222 -49 77 -52 84 -174 17 -299
-26 -49 -21 -53 112 -98 69 -23 133 -42 143 -43 45 -3 245 182 304 281 42 72
47 119 20 192 -31 84 -132 194 -251 273 -35 23 -57 43 -50 46 23 7 92 41 123
61 68 44 118 60 180 60 68 0 114 -15 189 -63 47 -30 48 -31 42 -71 -7 -38 -5
-43 37 -81 139 -128 261 -320 311 -490 10 -33 22 -73 28 -90 6 -16 13 -89 15
-161 5 -117 3 -141 -17 -208 -13 -42 -27 -76 -31 -76 -5 0 -9 -5 -9 -10 0 -29
-83 -117 -144 -154 -17 -10 -32 -19 -34 -21 -4 -4 32 -65 39 -65 21 0 169 132
169 150 0 6 4 10 8 10 13 0 70 122 82 173 27 122 30 186 14 275 -39 220 -121
409 -248 572 -27 36 -60 76 -73 90 -13 14 -23 27 -23 31 0 3 27 13 60 23 46
14 60 23 60 37 0 15 -7 19 -34 19 -56 0 -111 28 -178 92 -36 35 -126 78 -174
83 -27 3 -60 7 -74 9 -14 1 -50 -1 -82 -5z"/>
<path d="M1901 3203 c-129 -130 -188 -199 -304 -352 -49 -64 -93 -117 -98
-119 -5 -2 -9 -9 -9 -15 0 -7 -15 -28 -33 -48 -17 -20 -50 -58 -72 -85 -152
-184 -286 -321 -400 -413 -38 -31 -72 -59 -75 -62 -10 -11 -162 -109 -170
-109 -5 0 -10 -3 -12 -7 -2 -5 -19 -16 -38 -27 -160 -85 -209 -109 -267 -134
-131 -56 -153 -67 -153 -72 0 -3 11 -32 25 -65 20 -50 28 -60 47 -58 42 3 300
126 453 217 105 62 223 141 240 160 6 6 28 24 50 40 52 39 289 277 340 341 21
28 44 55 50 60 5 6 35 42 65 80 30 39 57 72 60 75 3 3 50 63 103 133 107 140
119 154 192 236 61 68 103 111 173 174 50 46 60 62 44 69 -4 2 -22 22 -40 46
-19 23 -41 42 -49 42 -9 0 -64 -48 -122 -107z"/>
<path d="M2917 3194 c-3 -3 -165 -7 -359 -8 l-353 -3 -3 -26 c-3 -26 -2 -27
51 -27 41 0 56 -4 61 -16 8 -20 8 -828 0 -848 -5 -12 -20 -16 -61 -16 -53 0
-54 0 -51 -27 l3 -28 223 -3 222 -2 0 30 0 30 -60 0 -60 0 2 438 3 437 99 0
98 0 42 -47 c29 -32 50 -69 68 -120 21 -64 28 -73 49 -73 22 0 25 7 41 85 10
47 24 100 33 118 20 43 20 98 -1 106 -20 8 -39 8 -47 0z"/>
<path d="M8400 3113 c0 -45 50 -156 84 -186 44 -40 118 0 176 95 45 73 36 89
-23 44 -29 -22 -64 -30 -125 -27 -15 1 -33 16 -54 46 -32 46 -58 58 -58 28z"/>
<path d="M6384 2884 c-56 -25 -103 -83 -155 -188 -31 -64 -33 -77 -33 -160 1
-106 20 -162 91 -268 79 -120 135 -144 211 -88 42 30 107 111 136 168 14 26
15 37 5 48 -19 23 -33 16 -67 -31 -17 -25 -38 -45 -45 -45 -43 0 -137 101
-178 190 -24 52 -36 168 -22 220 9 33 12 35 47 33 38 -3 104 -45 136 -87 8
-11 19 -25 23 -30 5 -7 12 -4 20 8 7 10 27 35 45 55 60 67 53 88 -46 136 -92
46 -133 55 -168 39z"/>
<path d="M4312 2859 c-99 -19 -168 -88 -218 -214 -15 -39 -19 -74 -18 -155 0
-90 4 -113 26 -160 31 -70 73 -111 146 -147 52 -26 67 -28 167 -28 93 0 117 3
155 22 56 27 104 69 95 82 -9 16 -22 13 -62 -14 -130 -88 -287 -31 -321 115
-17 72 -15 94 9 116 36 32 114 26 171 -13 50 -36 98 -43 118 -18 7 8 16 15 21
15 14 0 79 70 79 84 0 17 -27 29 -35 16 -9 -15 -62 -12 -78 5 -8 7 -26 17 -41
21 -14 3 -29 10 -32 15 -13 22 -104 -3 -177 -49 -22 -13 -42 -21 -45 -17 -8 8
-4 62 10 147 13 77 54 138 92 138 21 0 96 -63 96 -82 0 -4 5 -8 11 -8 7 0 17
-8 24 -17 19 -25 119 -24 162 2 26 15 30 22 22 37 -6 11 -21 18 -37 18 -15 0
-37 6 -48 14 -50 35 -120 66 -172 76 -62 11 -60 11 -120 -1z"/>
<path d="M3073 2823 c10 -69 26 -145 32 -151 3 -4 21 2 40 12 34 19 36 19 77
0 45 -20 113 -84 123 -115 4 -11 10 -19 15 -19 5 0 7 -7 4 -15 -4 -8 -16 -15
-27 -15 -35 0 -109 -32 -155 -66 -85 -64 -179 -223 -149 -253 6 -6 45 -11 89
-11 88 0 90 2 124 95 10 28 21 52 25 55 3 3 9 14 13 25 9 27 33 55 77 88 65
49 69 44 69 -102 0 -157 2 -161 94 -161 81 0 89 9 76 80 -16 83 -13 210 4 210
58 0 124 -85 185 -235 l20 -50 88 0 c84 0 88 1 91 23 3 20 -28 97 -53 130 -69
93 -164 158 -247 170 -23 3 -38 10 -38 18 0 8 4 14 9 14 5 0 13 9 16 21 12 37
90 107 134 120 35 10 43 10 59 -4 35 -32 47 -21 60 51 7 37 15 79 18 95 6 24
4 27 -22 27 -15 0 -47 -9 -70 -20 -41 -20 -137 -113 -171 -167 -10 -15 -20
-30 -23 -33 -9 -8 -30 -44 -40 -67 -5 -13 -15 -23 -21 -23 -8 0 -10 43 -8 148
l4 147 -68 3 c-42 2 -74 -2 -83 -9 -11 -9 -14 -43 -14 -150 0 -77 -4 -139 -8
-139 -5 0 -36 42 -69 93 -93 139 -185 217 -256 217 -28 0 -29 -2 -24 -37z"/>
<path d="M5505 2847 c-28 -15 -35 -84 -35 -359 0 -264 1 -278 19 -288 12 -6
114 -10 263 -10 291 0 293 1 286 85 -10 121 -103 219 -244 258 -33 9 -79 17
-102 17 -31 0 -44 5 -49 17 -4 9 -1 75 6 146 6 71 10 132 7 134 -8 8 -137 8
-151 0z m223 -376 c67 -34 102 -95 102 -178 l0 -53 -94 0 -93 0 -7 53 c-8 69
-8 182 1 190 12 13 54 7 91 -12z"/>
<path d="M7215 2839 c-68 -36 -150 -131 -211 -244 -40 -72 -48 -60 -40 61 3
60 9 128 12 152 l7 43 -83 -3 c-83 -3 -84 -3 -92 -33 -5 -16 -9 -150 -9 -297
0 -317 1 -321 75 -326 28 -2 60 -1 73 3 l23 5 -7 149 -6 149 27 -5 c34 -7 110
-82 135 -134 11 -21 22 -58 26 -82 12 -83 18 -87 110 -87 97 0 109 8 94 63
-11 42 -71 135 -100 155 -11 7 -27 21 -37 31 -25 25 -136 81 -160 81 -33 0
-36 18 -8 60 73 111 170 161 213 110 10 -11 23 -20 29 -20 12 0 24 31 24 64 0
11 10 40 21 64 18 37 19 46 8 53 -25 15 -83 10 -124 -12z"/>
<path d="M4992 2808 c2 -50 -10 -108 -23 -108 -5 0 -9 -5 -9 -10 0 -6 -29 -55
-65 -109 -36 -53 -65 -103 -65 -109 0 -7 -4 -12 -8 -12 -4 0 -14 -15 -21 -32
-50 -123 -64 -201 -39 -226 14 -14 184 -17 192 -3 4 5 -6 33 -21 63 -45 86
-34 183 37 343 9 22 26 59 36 83 10 23 21 42 25 42 4 0 11 -28 17 -62 6 -35
18 -89 26 -120 24 -84 46 -166 61 -223 16 -63 36 -107 55 -122 9 -7 47 -12 93
-13 90 0 92 4 56 93 -12 29 -27 68 -35 87 -7 19 -27 80 -44 135 -17 55 -35
114 -40 130 -10 34 -40 174 -38 183 3 29 -5 32 -97 32 l-96 0 3 -42z"/>
<path d="M7472 2813 c-20 -68 -24 -205 -12 -398 6 -104 13 -198 16 -207 5 -15
17 -18 78 -18 89 0 97 7 86 75 -5 28 -9 95 -9 151 -1 86 2 103 17 117 10 10
22 17 26 17 5 0 28 14 53 30 24 17 47 30 50 30 4 0 14 6 22 14 9 8 28 17 42
21 l27 7 4 -209 c4 -252 5 -253 93 -253 88 0 90 3 79 102 -11 104 -11 389 0
486 l9 72 -86 0 c-97 0 -94 3 -99 -90 -2 -33 -8 -47 -23 -55 -11 -6 -39 -23
-62 -38 -24 -15 -47 -27 -53 -27 -5 0 -10 -4 -10 -8 0 -7 -30 -25 -82 -50 -10
-5 -9 151 1 203 12 62 8 65 -78 65 l-78 0 -11 -37z"/>
<path d="M8225 2826 c-14 -21 -16 -63 -13 -314 2 -227 6 -293 17 -305 18 -23
146 -24 158 -2 5 8 5 45 1 82 -3 38 -10 104 -13 148 l-7 80 48 30 c27 16 56
33 64 37 8 5 29 17 45 28 17 11 42 26 56 34 l26 15 7 -177 c9 -203 17 -270 37
-283 24 -15 136 -11 142 5 3 8 1 72 -5 143 -6 73 -7 190 -3 273 4 80 7 163 8
185 l2 40 -73 3 c-45 2 -79 -2 -88 -8 -7 -7 -16 -39 -20 -72 -5 -47 -11 -62
-28 -69 -23 -11 -40 -21 -103 -62 -24 -15 -45 -27 -49 -27 -3 0 -12 -7 -20
-15 -9 -8 -22 -15 -31 -15 -13 0 -14 10 -9 58 3 31 9 92 12 135 l7 77 -76 0
c-70 0 -78 -2 -92 -24z"/>
<path d="M8576 2043 c10 -38 36 -84 56 -97 12 -7 25 -4 50 14 33 22 71 74 62
83 -3 2 -22 -4 -43 -15 -32 -16 -43 -17 -64 -7 -15 7 -29 20 -32 31 -4 10 -13
18 -21 18 -11 0 -13 -7 -8 -27z"/>
<path d="M2707 1922 c-106 -70 -155 -245 -95 -338 91 -142 167 -139 247 8 27
50 31 67 31 136 0 71 -3 83 -28 118 -35 48 -49 60 -93 78 -32 13 -38 13 -62
-2z m23 -102 c69 -35 115 -138 96 -214 -5 -22 -12 -26 -44 -26 -42 0 -75 25
-113 86 -37 60 -29 174 13 174 5 0 27 -9 48 -20z"/>
<path d="M3061 1901 c-59 -59 -84 -115 -83 -191 0 -48 6 -77 22 -105 73 -137
120 -158 189 -85 47 50 66 84 57 107 -6 15 -10 13 -32 -15 -14 -18 -31 -32
-38 -32 -18 0 -78 61 -95 96 -7 16 -17 37 -22 46 -12 23 -11 95 1 117 14 26
52 16 94 -26 l35 -35 30 34 c17 18 31 39 31 45 0 14 -41 38 -108 65 l-43 17
-38 -38z"/>
<path d="M4836 1923 c-32 -17 -66 -49 -66 -63 0 -5 -4 -10 -9 -10 -5 0 -19
-24 -31 -52 -22 -52 -22 -56 -14 -283 9 -226 9 -230 31 -233 41 -6 60 77 45
193 -5 39 -8 72 -6 74 2 3 14 -5 27 -16 100 -91 207 -23 207 131 0 102 -61
229 -125 259 -27 13 -34 13 -59 0z m20 -106 c49 -56 66 -98 72 -173 3 -57 1
-73 -13 -87 -33 -33 -73 -14 -120 58 -16 24 -20 47 -20 114 0 58 4 86 13 89 6
2 12 10 12 18 0 24 26 15 56 -19z"/>
<path d="M5229 1922 c-41 -29 -61 -53 -91 -115 -37 -74 -35 -128 7 -210 65
-129 117 -149 190 -71 44 46 63 90 47 106 -6 6 -18 -2 -31 -21 -27 -38 -38
-38 -74 -5 -55 51 -79 102 -81 171 -2 93 25 103 95 36 l37 -35 22 24 c52 56
45 73 -49 115 -46 20 -51 20 -72 5z"/>
<path d="M2214 1888 c-5 -13 -8 -99 -7 -192 0 -190 4 -200 73 -194 l34 3 1
185 0 185 47 3 c59 4 88 -23 88 -80 0 -50 24 -51 41 0 6 20 18 46 25 57 8 11
14 27 14 37 0 16 -13 18 -154 18 -151 0 -155 0 -162 -22z"/>
<path d="M3320 1885 c0 -14 4 -33 9 -43 27 -53 71 -298 57 -321 -9 -14 19 -21
81 -21 l55 0 -6 -32 c-4 -18 -9 -70 -13 -115 l-6 -83 43 0 43 0 -7 48 c-18
129 -18 222 -1 323 17 105 32 138 72 160 19 10 26 9 43 -6 20 -18 20 -18 20
16 0 19 7 45 16 57 20 29 11 42 -31 42 -43 0 -99 -52 -115 -107 -19 -63 -50
-216 -50 -245 0 -21 -5 -28 -19 -28 -15 0 -20 10 -24 48 -25 202 -43 280 -74
315 -10 10 -31 17 -55 17 -34 0 -38 -3 -38 -25z"/>
<path d="M3924 1847 c-1 -42 -12 -93 -34 -157 -44 -131 -56 -149 -103 -157
-20 -3 -40 -10 -43 -14 -3 -5 8 -28 23 -52 16 -23 38 -61 49 -84 30 -66 50
-54 46 28 -4 65 -3 66 27 79 19 7 61 11 112 8 102 -4 114 -16 104 -100 -9 -84
12 -76 69 24 47 84 51 108 18 108 -10 0 -25 12 -34 28 -23 40 -76 204 -83 259
-13 99 -8 93 -83 93 l-67 0 -1 -63z m63 -79 c6 -35 16 -82 22 -106 11 -41 15
-52 39 -98 6 -12 8 -25 5 -28 -8 -8 -178 -8 -186 0 -4 4 0 19 8 33 8 14 24 58
35 96 12 39 26 80 31 93 5 13 9 34 9 47 0 14 6 25 13 25 8 0 17 -24 24 -62z"/>
<path d="M4415 1882 c6 -29 -5 -49 -68 -116 -44 -47 -87 -127 -87 -162 0 -129
144 -155 201 -37 11 24 24 45 28 47 3 2 15 -22 25 -55 l19 -59 49 0 c33 0 48
4 48 13 0 7 -15 62 -34 123 -39 129 -57 197 -64 242 l-4 32 -60 0 -60 0 7 -28z
m38 -109 c20 -56 22 -122 5 -146 -19 -25 -71 -32 -91 -12 -28 27 -21 81 19
146 19 33 39 59 43 59 4 0 15 -21 24 -47z"/>
<path d="M5446 1894 c-4 -9 6 -36 22 -63 16 -25 31 -54 35 -64 4 -11 14 -17
24 -15 14 3 17 11 15 42 -5 52 27 86 80 86 l38 0 0 -184 c0 -199 -1 -196 55
-196 51 0 50 -2 47 195 l-4 185 42 0 c31 0 47 -6 65 -26 26 -28 33 -68 14 -80
-12 -7 7 -24 27 -24 16 0 77 126 70 145 -5 13 -43 15 -265 15 -229 0 -260 -2
-265 -16z"/>
<path d="M6052 1893 c-4 -10 -7 -98 -7 -196 0 -147 3 -179 15 -187 8 -5 78
-10 155 -10 166 0 189 8 193 62 3 33 -2 43 -41 81 -28 29 -62 50 -95 61 -29
10 -52 21 -52 25 0 9 45 31 63 31 7 0 27 13 45 29 24 22 32 38 32 63 0 55 -10
58 -162 58 -123 0 -139 -2 -146 -17z m202 -35 c22 -36 -62 -136 -101 -121 -14
6 -17 59 -7 112 6 31 8 32 52 29 29 -2 49 -9 56 -20z m-31 -177 c58 -38 85
-115 48 -138 -15 -10 -77 -17 -118 -14 -9 1 -13 25 -13 86 l0 85 28 0 c15 0
40 -9 55 -19z"/>
<path d="M6557 1867 c-116 -116 -95 -317 40 -373 75 -32 219 -10 244 37 12 23
-3 26 -24 5 -8 -8 -33 -20 -56 -26 -36 -9 -48 -8 -79 7 -40 19 -82 82 -82 122
0 50 64 66 124 30 39 -22 59 -20 100 12 32 25 35 54 5 46 -11 -3 -39 1 -62 9
-35 13 -49 13 -82 3 -22 -7 -44 -16 -49 -21 -6 -4 -16 -8 -24 -8 -19 0 -12 78
11 133 20 47 51 49 92 7 15 -16 41 -32 56 -35 31 -7 99 11 99 26 0 7 -13 12
-22 8 -2 -1 -29 13 -61 30 -48 26 -69 31 -122 31 -64 0 -67 -1 -108 -43z"/>
<path d="M6936 1894 c-3 -9 -6 -94 -6 -189 0 -188 5 -205 55 -205 53 0 55 4
48 106 l-6 94 76 0 77 0 0 -94 c0 -101 3 -106 58 -106 51 0 53 6 43 134 -6 64
-8 122 -6 129 2 7 6 42 9 80 l7 67 -50 0 c-57 0 -61 -6 -61 -90 0 -32 -3 -65
-6 -74 -7 -17 -42 -20 -108 -9 l-39 6 7 84 6 83 -49 0 c-35 0 -51 -4 -55 -16z"/>
<path d="M7397 1903 c-13 -12 -8 -378 5 -391 14 -14 67 -16 87 -3 11 7 11 23
2 91 -6 46 -11 87 -11 92 0 4 33 8 74 8 l74 0 4 -91 c3 -64 8 -93 19 -100 15
-9 85 -6 96 4 3 4 0 40 -7 80 -12 71 -9 215 5 285 l7 32 -50 0 c-28 0 -54 -5
-57 -11 -4 -6 -9 -46 -12 -90 l-6 -80 -64 4 c-35 2 -68 8 -74 14 -7 7 -7 28 0
69 18 94 18 94 -37 94 -27 0 -52 -3 -55 -7z"/>
<path d="M7862 1898 c-9 -9 -12 -63 -12 -199 0 -161 2 -188 16 -193 9 -3 82
-6 164 -6 174 0 181 3 162 77 -13 49 -40 92 -58 93 -6 0 -17 6 -23 13 -6 8
-45 22 -86 32 l-76 19 6 76 c4 41 8 80 9 85 2 15 -87 18 -102 3z m147 -224
c36 -18 61 -65 61 -114 l0 -31 -57 3 -58 3 -3 78 c-3 86 0 89 57 61z"/>
<path d="M8252 1898 c-8 -8 -12 -66 -12 -193 0 -127 4 -185 12 -193 13 -13 76
-16 95 -4 9 6 9 19 1 52 -6 26 -8 108 -5 198 l5 152 -42 0 c-23 0 -47 -5 -54
-12z"/>
<path d="M8465 1890 c-16 -17 -17 -37 -13 -195 5 -192 5 -195 63 -195 51 0 56
9 44 73 -5 32 -9 74 -7 94 3 33 9 40 73 79 l70 43 6 -123 c7 -142 16 -166 62
-166 54 0 55 4 45 130 -7 79 -6 138 1 188 6 41 9 78 5 83 -8 13 -92 11 -100
-3 -4 -7 -10 -27 -13 -46 -4 -23 -15 -38 -36 -50 -16 -9 -32 -20 -35 -23 -5
-6 -70 -39 -77 -39 -6 0 -3 75 6 110 4 19 6 41 4 48 -7 20 -77 15 -98 -8z"/>
<path d="M5363 1131 c-22 -16 -50 -42 -61 -57 -12 -16 -26 -34 -31 -41 -6 -6
-13 -23 -17 -37 -3 -15 -10 -28 -14 -31 -16 -10 -21 -153 -10 -290 7 -77 14
-193 17 -257 4 -95 8 -118 20 -118 58 0 77 70 67 243 -4 64 -4 117 0 117 4 0
17 -11 29 -24 47 -50 122 -70 170 -45 31 17 54 42 78 89 19 36 21 53 17 148
-4 94 -8 115 -35 172 -17 36 -51 87 -75 113 -55 58 -93 63 -155 18z m41 -102
c69 -62 123 -206 113 -296 -6 -54 -43 -99 -74 -89 -29 9 -76 55 -104 101 -21
35 -24 52 -24 140 0 77 5 109 19 138 10 20 22 37 27 37 5 0 25 -14 43 -31z"/>
<path d="M5866 1126 c-99 -98 -141 -242 -100 -342 35 -88 46 -108 99 -170 70
-83 126 -64 226 79 26 37 31 52 23 64 -18 28 -28 24 -52 -17 -27 -47 -41 -49
-87 -14 -69 53 -135 193 -121 259 3 11 7 32 11 48 4 22 11 27 35 27 22 0 43
-13 82 -50 l51 -50 39 43 c56 62 52 79 -33 121 -92 46 -129 47 -173 2z"/>
<path d="M4805 1134 c-107 -38 -182 -172 -170 -304 12 -122 39 -177 114 -224
54 -34 152 -50 224 -37 62 11 137 53 137 76 0 20 -2 19 -54 -10 -34 -19 -59
-25 -105 -25 -58 0 -63 2 -100 39 -31 31 -42 52 -51 97 -12 57 -12 58 14 81
34 29 71 29 121 -2 58 -36 63 -38 88 -31 35 8 108 79 99 94 -7 10 -14 11 -35
1 -22 -10 -30 -9 -44 3 -10 8 -36 22 -59 32 -43 19 -57 16 -146 -30 -47 -25
-51 -20 -43 59 9 84 17 109 45 137 30 30 50 25 108 -30 64 -61 88 -68 147 -44
51 21 57 47 11 52 -16 2 -45 14 -65 26 -47 30 -127 56 -165 55 -17 0 -49 -7
-71 -15z"/>
<path d="M7723 1132 c-54 -22 -93 -60 -129 -125 -27 -48 -29 -60 -29 -162 0
-107 1 -112 32 -160 30 -47 48 -63 101 -92 36 -19 136 -34 184 -27 78 12 167
62 152 86 -3 4 -27 -3 -54 -17 -72 -37 -144 -35 -191 5 -44 36 -69 85 -69 137
0 33 5 42 31 57 37 22 72 17 129 -19 22 -14 48 -25 59 -25 10 0 41 20 68 44
36 34 45 47 37 56 -9 9 -17 9 -34 0 -17 -9 -25 -9 -38 3 -9 7 -36 21 -58 30
-39 15 -45 15 -95 -4 -30 -11 -58 -25 -63 -30 -25 -24 -36 -8 -36 49 1 93 39
172 83 172 10 0 35 -16 54 -35 81 -81 104 -89 168 -57 41 20 42 46 1 50 -16 2
-47 15 -69 29 -46 29 -120 53 -162 52 -16 0 -49 -8 -72 -17z"/>
<path d="M6803 1111 c-4 -15 0 -35 10 -50 9 -14 29 -52 44 -83 21 -43 33 -58
49 -58 29 0 33 6 25 43 -9 38 1 80 23 102 18 18 68 35 103 35 l23 0 2 -247 3
-248 65 0 65 0 -4 242 c-3 236 -2 241 18 248 85 27 185 -75 141 -145 -6 -9 -5
-17 3 -22 27 -17 45 -7 66 40 12 26 34 68 49 94 19 34 23 51 16 58 -7 7 -126
12 -353 13 l-342 2 -6 -24z"/>
<path d="M8099 1126 c-15 -16 -11 -39 14 -76 13 -19 34 -56 47 -82 23 -46 41
-57 67 -40 8 5 9 13 3 22 -19 30 -11 79 18 110 22 25 36 31 77 33 l50 2 1
-232 c1 -128 4 -239 8 -248 4 -13 18 -15 67 -13 l61 3 -1 242 c-1 168 1 243 9
248 22 14 96 -5 124 -32 26 -24 28 -31 24 -80 -4 -50 -3 -54 19 -59 13 -4 25
-5 26 -3 1 2 22 44 47 92 32 64 42 92 35 103 -9 14 -57 16 -348 17 -203 1
-342 -2 -348 -7z"/>
<path d="M2220 1097 c0 -18 4 -37 9 -42 10 -11 39 -116 51 -186 5 -26 13 -64
19 -85 6 -22 11 -72 11 -111 l0 -73 84 0 c58 0 86 -4 88 -12 3 -7 -1 -40 -8
-73 -7 -33 -13 -100 -14 -149 l0 -89 46 6 c25 2 50 9 54 13 5 5 4 42 -1 84 -6
42 -9 157 -6 260 5 208 20 282 70 332 31 30 74 37 83 13 13 -32 34 -16 34 25
0 23 7 52 16 65 28 42 12 58 -51 53 -61 -5 -89 -27 -125 -98 -31 -61 -80 -283
-80 -364 0 -22 -4 -26 -28 -26 l-28 0 -12 113 c-19 191 -39 285 -74 345 -19
30 -23 32 -79 32 l-59 0 0 -33z"/>
<path d="M2842 1118 c-18 -18 -17 -477 1 -502 10 -14 25 -17 72 -14 l60 3 -1
50 c0 28 -3 86 -5 130 l-4 80 84 3 c46 2 88 -1 93 -6 5 -5 11 -62 15 -128 3
-68 11 -122 17 -126 15 -10 108 -10 124 1 11 6 11 21 2 72 -12 71 -9 388 5
427 8 23 7 23 -66 20 l-74 -3 -2 -45 c-2 -25 -5 -73 -9 -107 l-6 -63 -95 0
-96 0 7 58 c3 31 9 81 12 110 l7 52 -65 0 c-36 0 -69 -5 -76 -12z"/>
<path d="M3451 1111 c-7 -12 -11 -108 -11 -254 0 -190 3 -237 14 -246 9 -7 38
-11 73 -9 l58 3 -4 60 c-3 33 -5 91 -5 129 -1 59 2 70 19 80 11 6 22 13 25 16
10 11 132 80 141 80 5 0 9 -69 9 -163 0 -201 4 -209 88 -205 l57 3 -5 55 c-8
87 -5 360 4 418 l9 52 -61 0 c-87 0 -92 -4 -92 -61 0 -44 -3 -51 -27 -62 -16
-6 -30 -14 -33 -17 -8 -10 -127 -80 -135 -80 -4 0 -4 35 0 78 15 148 19 137
-52 140 -53 3 -63 0 -72 -17z"/>
<path d="M4066 1108 c-24 -34 -24 -493 0 -502 9 -3 109 -6 224 -6 238 0 240 1
240 75 0 49 -22 93 -62 125 -38 29 -143 80 -167 80 -12 0 -21 7 -21 15 0 8 6
15 12 15 20 0 118 43 118 52 0 4 6 8 13 8 26 1 48 49 45 97 -4 60 -6 61 -220
62 -162 1 -167 0 -182 -21z m222 -14 c76 -15 36 -135 -57 -174 -28 -11 -34
-11 -41 0 -8 13 -4 138 6 168 4 13 43 16 92 6z m-12 -249 c74 -43 115 -141 80
-188 -12 -15 -26 -17 -92 -15 l-79 3 -3 99 c-1 55 0 106 2 113 8 20 45 15 92
-12z"/>
<path d="M6258 1108 c-14 -25 -17 -374 -4 -460 l7 -48 65 0 65 0 -6 133 -7
132 44 24 c23 13 62 37 86 52 24 16 47 29 51 29 4 0 11 -69 14 -152 3 -84 10
-166 15 -183 8 -29 11 -30 68 -33 l60 -3 -1 266 0 265 -62 0 c-70 0 -83 -11
-83 -74 0 -32 -5 -39 -57 -72 -31 -20 -64 -39 -72 -42 -9 -3 -22 -12 -29 -19
-30 -30 -35 -14 -27 97 l7 110 -61 0 c-52 0 -62 -3 -73 -22z"/>
</g>
</svg>
