<?xml version="1.0" standalone="no"?>
<!DOCTYPE svg PUBLIC "-//W3C//DTD SVG 20010904//EN"
 "http://www.w3.org/TR/2001/REC-SVG-20010904/DTD/svg10.dtd">
<svg version="1.0" xmlns="http://www.w3.org/2000/svg"
 width="897.000000pt" height="717.000000pt" viewBox="0 0 897.000000 717.000000"
 preserveAspectRatio="xMidYMid meet">

<g transform="translate(0.000000,717.000000) scale(0.100000,-0.100000)"
fill="#000000" stroke="none">
<path d="M4670 7084 c-228 -26 -316 -39 -448 -65 -1278 -251 -2340 -1160
-2741 -2347 -37 -111 -106 -354 -117 -412 -2 -14 -6 -34 -8 -45 -4 -18 -11
-56 -20 -110 -2 -11 -7 -43 -10 -71 -4 -28 -9 -61 -11 -75 -3 -13 -10 -102
-17 -197 -24 -356 25 -765 137 -1152 20 -67 33 -126 28 -129 -172 -128 -530
-326 -943 -522 -96 -46 -177 -84 -179 -86 -6 -4 163 -453 170 -453 12 0 308
124 442 186 180 82 445 220 589 307 70 42 132 77 136 77 5 0 33 -42 61 -92
433 -765 1143 -1347 2001 -1640 537 -184 1043 -241 1618 -182 934 95 1827 556
2426 1253 347 404 607 900 731 1396 15 61 30 117 32 125 6 16 9 29 17 77 3 17
10 60 16 95 7 35 14 79 16 98 3 19 7 46 9 60 27 143 29 513 5 735 -68 621
-306 1224 -676 1711 -49 64 -93 121 -98 128 -5 8 7 35 33 76 94 145 94 278 0
367 -40 38 -148 90 -205 99 l-40 6 -17 -79 c-10 -43 -20 -88 -23 -99 -5 -19 3
-26 49 -47 62 -28 76 -52 57 -98 -7 -16 -15 -29 -17 -29 -3 0 -51 43 -107 97
-325 309 -676 545 -1076 721 -333 147 -738 256 -1085 292 -60 6 -128 15 -150
19 -41 9 -521 12 -585 5z m630 -78 c323 -40 487 -71 711 -136 546 -158 1053
-446 1459 -829 l95 -89 -39 -17 c-91 -39 -241 -48 -425 -26 -52 6 -96 9 -99 7
-2 -3 -8 -23 -12 -45 l-7 -40 46 -8 c25 -4 127 -8 226 -8 197 0 293 15 392 61
56 27 109 80 119 119 13 52 -35 114 -100 131 -26 6 -28 9 -23 47 3 21 9 43 14
48 10 10 115 -40 150 -73 38 -35 55 -76 55 -129 -1 -63 -29 -115 -96 -176
l-55 -51 46 -53 c397 -464 666 -1044 763 -1644 29 -178 34 -257 33 -540 0
-275 -13 -410 -63 -655 -156 -775 -592 -1481 -1225 -1985 -274 -218 -563 -387
-870 -508 -290 -115 -504 -176 -808 -232 -279 -51 -360 -57 -652 -51 -148 3
-290 8 -315 11 -25 2 -63 7 -85 9 -142 16 -410 72 -582 121 -485 140 -970 397
-1343 713 -111 94 -371 362 -463 477 -90 112 -247 338 -247 355 0 5 37 51 82
102 83 94 224 270 513 639 298 382 518 630 714 806 58 53 107 99 109 103 1 3
-16 30 -39 58 l-42 51 -30 -21 c-54 -39 -288 -271 -406 -403 -150 -168 -269
-310 -531 -635 -269 -333 -448 -544 -463 -548 -7 -1 -36 50 -67 123 -30 69
-59 125 -64 125 -5 0 -64 -35 -130 -78 -252 -164 -294 -186 -749 -396 -114
-53 -213 -96 -221 -96 -12 0 -56 101 -56 129 0 6 19 20 43 30 23 10 82 37 130
60 49 23 146 66 215 97 487 215 833 472 1397 1039 226 227 374 392 683 765
135 162 277 333 316 380 460 554 793 808 1202 915 130 35 159 39 289 39 229
-1 385 -76 457 -222 32 -64 33 -71 32 -182 0 -104 -3 -123 -32 -199 -17 -46
-37 -89 -43 -97 -9 -10 -8 -15 2 -19 8 -3 128 -48 268 -100 l254 -95 64 46
c231 165 410 353 475 502 87 197 54 380 -103 570 -67 81 -220 212 -321 275
-37 23 -67 47 -68 53 0 7 20 15 45 18 32 5 57 18 92 50 66 59 164 121 226 143
78 27 231 24 322 -6 80 -26 167 -76 208 -119 l28 -29 -16 -65 -17 -65 115
-114 c323 -323 539 -724 601 -1115 18 -112 21 -352 5 -424 -5 -25 -11 -57 -14
-72 -2 -15 -9 -37 -15 -48 -6 -11 -8 -20 -4 -20 3 0 1 -7 -6 -15 -7 -8 -10
-15 -7 -15 4 0 -15 -42 -40 -92 -61 -122 -173 -238 -278 -288 -38 -19 -71 -35
-73 -36 -2 -1 15 -32 38 -68 l42 -66 41 21 c114 58 237 170 315 287 48 73 100
172 106 203 3 13 5 25 5 27 1 1 1 5 2 10 0 4 4 12 9 17 7 9 17 48 27 100 1 11
7 43 12 70 17 91 6 399 -18 504 -80 354 -249 677 -539 1031 -34 41 -59 77 -56
79 3 3 13 6 22 6 13 0 19 16 28 73 l11 72 -61 31 c-76 38 -150 94 -209 159
-51 55 -109 87 -217 122 -62 19 -96 23 -195 22 -103 0 -132 -4 -205 -28 -99
-33 -178 -71 -273 -132 -37 -24 -76 -44 -87 -44 -19 0 -739 114 -790 125 -14
3 51 -35 144 -85 221 -119 416 -237 562 -341 140 -100 316 -269 373 -358 48
-75 81 -173 81 -241 0 -61 -28 -151 -65 -210 -40 -65 -177 -196 -274 -262
l-83 -56 -66 25 c-37 14 -95 35 -130 48 -35 13 -65 25 -68 28 -2 2 5 44 17 93
24 103 29 243 9 324 -39 168 -175 314 -344 370 -92 30 -150 39 -276 40 -122 1
-148 -1 -280 -25 -75 -14 -250 -79 -365 -135 -209 -103 -406 -241 -611 -429
-144 -130 -213 -206 -509 -556 -435 -514 -663 -764 -1102 -1205 -371 -373
-411 -409 -423 -389 -13 20 -67 220 -89 329 -47 232 -65 419 -64 675 0 217 10
326 48 550 153 902 663 1696 1440 2240 349 245 768 437 1175 540 58 15 118 29
135 31 16 3 39 7 50 10 11 2 36 6 55 10 19 3 46 7 60 10 37 7 80 13 125 18 22
3 63 8 90 11 28 3 76 7 108 10 33 2 61 5 63 8 6 5 501 -1 554 -7z"/>
<path d="M4085 2868 c-22 -6 -256 -12 -522 -15 l-483 -5 0 -38 0 -39 88 -3 87
-3 3 -650 c1 -357 0 -660 -3 -672 -5 -22 -11 -23 -90 -23 l-85 0 0 -40 0 -40
325 0 325 0 0 40 0 40 -85 0 -85 0 2 673 3 672 108 3 c130 3 176 -8 228 -55
47 -42 79 -101 109 -199 38 -121 39 -124 71 -124 36 0 43 17 59 130 6 45 24
119 41 165 58 166 33 215 -96 183z"/>
<path d="M5310 2859 c-25 -4 -258 -8 -517 -8 l-473 -1 0 -45 0 -45 85 0 85 0
0 -670 0 -670 -85 0 -85 0 0 -45 0 -45 325 0 325 0 0 39 c0 38 0 38 -46 45
-26 3 -64 6 -85 6 l-39 0 0 670 0 670 128 0 c102 0 135 -4 167 -19 73 -33 116
-100 161 -250 30 -98 48 -120 83 -101 24 12 27 22 41 124 5 44 24 119 40 166
32 92 38 158 18 178 -13 13 -60 14 -128 1z"/>
<path d="M6593 2849 c-82 -40 -127 -121 -187 -330 -39 -136 -126 -506 -177
-751 -18 -87 -36 -158 -40 -158 -4 0 -10 8 -13 18 -7 21 -232 1043 -241 1095
l-7 37 71 0 71 0 0 40 0 40 -270 0 -270 0 0 -40 c0 -40 0 -40 39 -40 22 0 41
-5 43 -12 3 -7 76 -329 164 -715 l159 -703 93 0 c107 0 99 17 77 -155 -9 -66
-18 -183 -22 -259 l-6 -139 88 6 c48 3 90 8 92 11 3 2 -2 49 -11 104 -17 107
-20 197 -10 340 l7 92 53 0 54 0 0 40 0 40 -50 0 c-27 0 -50 2 -50 4 0 23 138
687 160 771 64 244 143 372 239 391 23 5 45 -1 90 -25 33 -17 63 -31 66 -31 3
0 5 31 5 68 0 37 7 95 17 127 9 33 17 74 17 90 1 27 -3 32 -49 47 -70 24 -150
23 -202 -3z"/>
</g>
</svg>
