<?xml version="1.0" standalone="no"?>
<!DOCTYPE svg PUBLIC "-//W3C//DTD SVG 20010904//EN"
 "http://www.w3.org/TR/2001/REC-SVG-20010904/DTD/svg10.dtd">
<svg version="1.0" xmlns="http://www.w3.org/2000/svg"
 width="900.000000pt" height="900.000000pt" viewBox="0 0 900.000000 900.000000"
 preserveAspectRatio="xMidYMid meet">

<g transform="translate(0.000000,900.000000) scale(0.100000,-0.100000)"
fill="#000000" stroke="none">
<path d="M4575 8004 c-728 -78 -1399 -354 -1972 -810 -133 -106 -430 -404
-537 -539 -414 -521 -664 -1118 -743 -1775 -23 -197 -23 -563 1 -755 23 -184
66 -400 112 -555 20 -69 38 -134 41 -145 3 -16 -17 -34 -104 -92 -175 -116
-338 -205 -691 -380 -275 -136 -332 -167 -327 -181 3 -9 40 -109 82 -222 42
-113 79 -208 82 -212 9 -10 415 167 656 287 116 57 280 145 365 196 120 72
156 89 162 78 5 -8 43 -72 86 -144 748 -1255 2218 -1941 3711 -1734 949 131
1818 624 2396 1359 396 502 642 1094 721 1735 22 171 25 568 6 730 -77 663
-308 1237 -705 1754 l-80 105 22 35 c89 144 111 251 69 331 -41 75 -159 149
-266 166 l-37 6 -18 -79 c-9 -43 -20 -88 -23 -100 -5 -18 1 -24 38 -41 75 -33
96 -72 63 -116 -14 -18 -21 -13 -132 95 -577 559 -1364 917 -2205 1004 -184
19 -592 18 -773 -1z m735 -69 c170 -18 168 -17 308 -39 15 -3 45 -9 68 -15 23
-6 56 -13 75 -15 39 -6 49 -8 104 -24 22 -6 54 -14 70 -17 46 -9 49 -10 60
-17 8 -4 64 -20 85 -23 3 0 10 -3 15 -6 12 -7 79 -30 103 -34 9 -2 18 -4 20
-5 1 -2 5 -3 10 -4 4 -1 17 -7 29 -14 12 -6 30 -13 40 -15 10 -2 28 -9 41 -15
12 -7 22 -10 22 -7 0 3 12 -3 27 -12 15 -10 28 -17 30 -15 2 1 16 -4 32 -12
16 -9 31 -12 35 -9 3 4 6 1 6 -5 0 -7 3 -11 8 -10 22 6 329 -164 502 -277 221
-144 565 -431 553 -461 -3 -8 -8 -12 -12 -10 -3 2 -17 -1 -31 -7 -14 -5 -36
-12 -50 -14 -14 -2 -36 -7 -50 -12 -36 -11 -221 -4 -367 13 -24 3 -44 2 -44
-2 -1 -4 -3 -18 -4 -32 -1 -14 -5 -33 -9 -42 -6 -12 -3 -17 11 -17 10 0 52 -4
93 -8 128 -13 309 -8 400 11 14 3 41 8 60 11 80 14 206 94 214 136 2 8 6 22
10 31 18 40 -63 128 -118 128 -12 0 -14 7 -10 28 3 15 7 36 9 47 2 11 4 21 4
23 1 2 7 0 14 -5 6 -4 14 -8 17 -8 15 -2 98 -50 118 -69 53 -47 72 -130 44
-188 -7 -16 -9 -28 -5 -28 4 0 -24 -31 -63 -69 l-71 -69 74 -89 c93 -112 219
-291 305 -435 37 -62 71 -118 75 -123 16 -22 93 -182 93 -193 0 -7 4 -12 10
-12 5 0 9 -3 8 -7 -3 -8 56 -160 76 -198 5 -11 11 -25 12 -31 2 -11 50 -157
61 -184 3 -8 8 -24 10 -35 2 -11 6 -27 10 -35 9 -22 19 -60 29 -110 3 -14 8
-34 11 -45 7 -21 8 -29 18 -90 3 -22 9 -49 12 -60 4 -11 8 -29 10 -40 1 -11 5
-38 8 -60 5 -43 9 -71 20 -175 9 -79 10 -542 1 -625 -9 -84 -18 -151 -31 -235
-3 -19 -7 -44 -9 -56 -1 -11 -6 -25 -10 -32 -4 -7 -4 -17 -1 -22 4 -6 2 -16
-3 -23 -5 -7 -10 -19 -10 -27 -1 -16 -3 -24 -20 -85 -6 -22 -14 -53 -17 -70
-8 -37 -9 -44 -22 -75 -6 -14 -14 -41 -19 -60 -10 -44 -9 -41 -19 -65 -15 -38
-47 -120 -47 -125 -1 -6 -23 -60 -48 -117 -10 -23 -16 -44 -12 -47 3 -3 0 -6
-6 -6 -7 0 -11 -3 -10 -7 1 -5 -27 -64 -62 -133 -36 -69 -64 -128 -62 -132 1
-5 -1 -8 -6 -8 -4 0 -19 -21 -32 -47 -14 -27 -28 -50 -31 -53 -3 -3 -31 -45
-64 -95 -254 -394 -628 -764 -1040 -1031 -49 -32 -93 -62 -96 -67 -3 -5 -9 -8
-13 -7 -7 1 -178 -90 -186 -100 -8 -9 -90 -50 -90 -45 0 3 -13 -1 -30 -10 -16
-8 -33 -16 -37 -16 -5 -1 -17 -6 -28 -12 -11 -6 -22 -12 -25 -12 -13 -2 -59
-20 -100 -38 -25 -11 -49 -21 -55 -23 -5 -1 -23 -8 -40 -15 -16 -6 -35 -13
-42 -15 -21 -4 -118 -36 -128 -43 -5 -3 -13 -6 -17 -7 -5 -1 -9 -2 -10 -3 -2
-2 -14 -4 -28 -7 -14 -2 -32 -7 -40 -11 -20 -8 -30 -11 -65 -18 -16 -3 -37 -8
-45 -11 -8 -3 -28 -8 -45 -10 -16 -3 -37 -8 -45 -11 -8 -3 -22 -7 -30 -9 -8
-1 -26 -5 -40 -8 -14 -3 -38 -7 -55 -10 -16 -3 -41 -8 -55 -11 -14 -4 -37 -9
-52 -11 -29 -4 -66 -10 -115 -19 -16 -2 -44 -7 -63 -9 -19 -3 -57 -8 -85 -12
-65 -10 -580 -9 -670 0 -98 11 -124 14 -175 21 -25 4 -54 8 -65 9 -11 2 -29 6
-40 9 -11 4 -38 9 -60 12 -22 4 -50 8 -62 11 -13 2 -33 6 -45 9 -31 6 -46 10
-93 23 -22 6 -53 14 -70 17 -46 9 -49 10 -60 17 -5 3 -26 9 -45 14 -49 11 -49
11 -55 14 -3 1 -8 3 -12 5 -5 1 -21 7 -37 14 -16 6 -38 13 -50 16 -11 2 -22 4
-23 6 -2 1 -6 2 -10 3 -5 1 -18 7 -30 14 -12 6 -30 13 -40 15 -10 2 -28 9 -40
15 -13 7 -23 10 -23 7 0 -3 -10 1 -23 10 -13 8 -27 12 -30 8 -4 -3 -7 -2 -7 4
0 10 -32 23 -54 22 -5 -1 -12 3 -15 8 -3 4 -62 35 -131 68 -69 33 -129 64
-135 68 -5 4 -59 37 -120 73 -428 255 -837 643 -1113 1056 -58 88 -63 99 -51
116 8 11 71 87 140 169 70 83 234 289 366 459 381 490 567 705 779 899 63 58
115 108 115 112 0 4 -19 32 -42 60 l-42 53 -28 -21 c-52 -37 -288 -270 -402
-397 -145 -163 -259 -299 -547 -657 -129 -159 -279 -344 -334 -409 -56 -66
-104 -124 -108 -130 -8 -12 -39 24 -32 36 3 5 0 8 -7 8 -7 0 -10 3 -6 6 3 4
-4 25 -15 48 -12 22 -21 44 -20 49 1 4 -3 7 -10 7 -6 0 -9 3 -5 6 3 4 -1 21
-10 38 -9 17 -18 37 -19 44 -4 25 -10 23 -85 -30 -180 -126 -545 -337 -571
-330 -5 1 -8 -3 -8 -10 0 -6 -3 -9 -6 -5 -4 3 -30 -6 -58 -20 -28 -15 -54 -26
-58 -25 -5 1 -8 -3 -8 -10 0 -6 -3 -9 -6 -5 -4 3 -30 -6 -58 -20 -28 -15 -57
-28 -65 -29 -8 -2 -18 -9 -22 -16 -5 -7 -9 -10 -9 -5 0 4 -28 -7 -62 -25 -35
-18 -66 -31 -70 -30 -5 1 -8 -2 -8 -7 0 -5 -9 -7 -20 -4 -11 3 -18 8 -16 12 2
3 -2 21 -9 39 -8 18 -14 33 -13 35 1 1 -4 12 -11 24 -11 21 -8 24 41 50 29 15
59 28 67 29 8 2 18 9 22 16 5 7 9 10 9 5 0 -4 24 5 53 20 28 15 58 28 66 29 8
2 18 9 22 16 5 7 9 10 9 5 0 -4 19 3 42 15 24 12 46 21 51 20 4 -1 7 3 7 10 0
6 3 9 6 5 4 -3 25 4 48 15 22 12 47 23 55 24 8 2 18 9 22 16 5 7 9 9 9 5 0
-14 218 103 337 183 265 175 502 377 849 724 270 271 408 424 697 771 445 536
519 625 619 733 179 194 361 347 541 454 34 21 67 42 73 47 7 5 15 7 18 4 3
-4 6 -1 6 5 0 10 38 28 53 24 4 -1 7 3 7 10 0 6 3 9 6 5 4 -3 21 1 38 10 17 9
36 18 41 19 6 1 24 8 40 15 37 15 33 14 78 23 20 5 40 12 43 17 3 5 10 7 15 4
5 -4 15 -3 21 1 7 5 22 9 33 11 11 2 34 6 50 9 40 7 283 7 315 0 55 -12 65
-15 68 -16 1 -2 5 -3 10 -4 43 -10 191 -112 192 -133 0 -7 8 -17 18 -22 9 -6
13 -11 7 -11 -5 0 -4 -4 3 -9 7 -4 15 -14 16 -22 1 -8 9 -34 16 -59 28 -96 7
-259 -49 -372 -15 -32 -24 -59 -19 -59 18 -3 24 -5 45 -17 12 -6 30 -13 40
-15 10 -2 28 -8 40 -15 12 -7 30 -13 40 -15 10 -2 28 -8 40 -15 12 -7 30 -13
40 -15 10 -2 32 -10 48 -16 17 -7 37 -14 45 -16 8 -2 16 -4 18 -5 1 -2 5 -3
10 -4 4 -1 17 -7 29 -14 12 -6 30 -14 40 -15 10 -2 35 -12 56 -21 l38 -17 107
78 c132 95 325 285 378 372 21 36 38 69 36 73 -1 4 2 8 8 8 6 0 9 3 8 8 -1 4
3 17 10 30 7 12 10 22 6 22 -3 0 -1 7 6 15 7 8 9 15 5 15 -4 0 -3 6 2 13 13
15 15 33 14 132 0 97 -1 107 -14 123 -5 6 -6 12 -2 12 4 0 2 7 -5 15 -7 8 -10
15 -6 15 15 0 -58 124 -113 191 -76 94 -163 170 -323 280 -38 26 -70 51 -71
55 -1 4 9 9 23 10 14 2 34 5 45 8 11 2 23 5 27 5 4 1 31 22 60 49 29 26 71 58
93 72 22 13 42 28 43 32 2 5 8 6 13 2 5 -3 9 0 9 7 0 7 3 9 7 6 3 -4 17 0 30
8 13 9 23 13 23 11 0 -3 19 1 43 8 62 18 196 9 259 -18 9 -4 22 -9 30 -10 31
-5 121 -59 166 -99 38 -34 47 -47 41 -63 -4 -10 -14 -39 -21 -62 l-13 -44 135
-136 c141 -142 243 -269 326 -407 26 -44 52 -82 56 -83 4 -2 6 -7 3 -12 -3 -5
1 -15 9 -22 16 -17 49 -78 41 -78 -3 0 4 -19 16 -42 12 -24 21 -43 19 -43 -2
0 3 -11 10 -25 8 -14 15 -27 15 -30 1 -7 45 -141 52 -160 4 -8 5 -19 4 -24 -1
-4 3 -14 9 -20 5 -7 7 -16 4 -19 -3 -3 -2 -12 2 -19 4 -7 9 -19 10 -28 2 -8 5
-31 8 -50 3 -19 8 -51 12 -70 9 -44 8 -331 0 -385 -9 -52 -12 -67 -19 -85 -4
-8 -9 -26 -11 -40 -3 -14 -5 -26 -7 -27 -1 -2 -3 -7 -4 -13 -1 -5 -4 -12 -5
-15 -1 -3 -3 -8 -4 -12 -1 -5 -19 -42 -41 -83 -50 -97 -173 -221 -265 -270
-36 -19 -68 -33 -72 -32 -16 4 -7 -19 33 -82 l41 -66 58 31 c120 64 267 210
321 317 13 26 27 49 32 50 4 2 5 8 1 13 -3 5 0 9 5 9 6 0 10 3 9 8 -1 4 6 22
15 40 10 17 15 32 12 32 -4 0 -3 6 2 13 4 6 8 15 9 20 1 4 3 9 4 12 1 3 4 10
5 15 1 6 3 11 5 13 1 1 3 9 5 17 2 8 7 26 10 40 3 14 8 36 11 50 3 14 8 39 11
55 7 36 7 356 0 405 -3 19 -8 46 -11 60 -3 14 -7 42 -11 64 -3 21 -8 43 -11
48 -3 4 -7 21 -10 36 -3 15 -7 34 -11 42 -3 8 -7 18 -8 23 -2 4 -4 9 -5 12 -1
3 -4 10 -5 15 -1 6 -3 11 -4 13 -2 1 -4 12 -7 25 -2 13 -9 33 -16 45 -7 12
-13 27 -14 33 -1 6 -12 33 -24 60 -13 27 -24 56 -26 64 -2 8 -8 16 -14 18 -5
2 -8 8 -4 13 3 5 0 9 -6 9 -6 0 -8 5 -5 10 3 6 1 10 -5 10 -6 0 -9 4 -5 9 3 5
-2 16 -10 24 -8 9 -15 20 -15 25 0 33 -193 318 -312 460 -43 50 -78 94 -78 96
0 3 10 6 23 8 15 2 23 11 24 28 7 76 11 98 16 107 4 6 -7 16 -24 23 -58 25
-154 93 -224 160 -59 57 -175 133 -175 115 0 -3 -10 1 -22 9 -13 8 -39 17 -58
21 -19 3 -48 9 -65 12 -16 3 -66 6 -110 6 -75 1 -102 -2 -165 -18 -14 -3 -32
-8 -40 -10 -8 -2 -15 -4 -15 -5 0 -1 -8 -3 -17 -5 -36 -7 -108 -38 -108 -47 0
-5 -4 -6 -10 -3 -5 3 -10 1 -10 -5 0 -6 -4 -9 -8 -6 -5 3 -49 -21 -98 -52 -49
-32 -98 -56 -109 -55 -11 2 -40 5 -65 8 -60 8 -125 19 -185 30 -16 3 -48 8
-70 11 -53 7 -117 17 -180 29 -16 3 -46 8 -65 10 -44 7 -98 15 -130 20 -14 2
-37 6 -52 9 -14 2 -37 7 -50 11 -22 6 -22 5 -4 -9 10 -9 23 -13 27 -10 5 3 9
0 9 -6 0 -6 5 -8 10 -5 6 3 10 2 10 -3 0 -4 28 -22 63 -38 34 -16 68 -35 75
-42 8 -7 18 -10 23 -7 5 4 9 2 9 -4 0 -5 16 -15 35 -22 19 -7 35 -17 35 -22 0
-4 5 -5 10 -2 6 3 10 2 10 -4 0 -6 11 -13 25 -17 14 -3 25 -10 25 -16 0 -5 4
-7 9 -4 5 4 11 2 13 -3 1 -5 46 -35 98 -66 316 -191 550 -396 635 -556 22 -41
40 -77 41 -81 1 -5 2 -9 4 -10 5 -8 11 -59 11 -103 0 -55 -3 -78 -18 -115 -6
-14 -9 -28 -6 -32 2 -5 -1 -8 -7 -8 -6 0 -8 -4 -5 -10 3 -5 2 -10 -2 -10 -5 0
-17 -17 -28 -37 -29 -54 -158 -179 -259 -250 -75 -53 -91 -61 -112 -53 -13 5
-24 7 -24 4 0 -4 -7 -1 -15 6 -8 7 -15 10 -15 6 0 -4 -10 0 -23 9 -12 8 -32
16 -42 18 -11 2 -38 11 -60 21 -22 10 -47 18 -56 19 -14 1 -17 12 -10 35 1 1
1 5 2 10 0 4 5 13 11 20 6 7 8 15 5 19 -4 3 -2 12 3 18 9 11 24 126 23 185 0
89 -35 240 -56 240 -4 0 -6 4 -3 9 11 17 -84 131 -145 176 -34 25 -65 42 -70
39 -5 -3 -9 -1 -9 5 0 7 -42 27 -80 36 -3 1 -12 5 -20 8 -16 7 -55 15 -105 23
-39 6 -260 7 -305 1 -19 -3 -54 -8 -76 -11 -60 -9 -215 -55 -241 -72 -13 -8
-23 -12 -23 -8 0 3 -11 -1 -25 -10 -14 -9 -25 -14 -25 -10 0 3 -20 -6 -44 -20
-24 -14 -46 -22 -50 -19 -3 3 -6 1 -6 -6 0 -7 -4 -9 -10 -6 -5 3 -10 1 -10 -5
0 -6 -4 -8 -10 -5 -5 3 -10 1 -10 -4 0 -6 -6 -11 -14 -11 -23 0 -218 -123
-337 -212 -233 -177 -378 -323 -691 -700 -453 -544 -871 -998 -1370 -1486
-179 -176 -188 -181 -196 -124 -1 12 -8 35 -14 50 -6 15 -12 32 -13 37 -1 6
-3 12 -4 15 -2 3 -4 12 -6 20 -2 8 -7 26 -10 40 -3 14 -8 39 -11 55 -3 17 -8
37 -11 45 -4 8 -8 24 -9 35 -6 50 -15 102 -21 120 -3 11 -7 31 -9 45 -2 14 -5
41 -8 60 -42 294 -38 701 8 950 8 43 17 94 20 120 2 14 6 32 10 40 3 8 8 31
10 50 3 19 6 35 7 35 1 0 3 9 5 20 5 33 17 81 27 105 4 8 8 24 10 35 1 11 5
25 9 30 3 6 9 26 14 45 11 49 11 49 14 55 1 3 4 10 5 15 1 6 4 12 5 15 1 3 3
8 4 13 1 4 9 23 18 42 13 32 41 108 43 120 0 3 9 20 18 37 10 18 17 35 17 38
0 3 7 19 15 35 9 17 12 30 8 30 -5 0 -2 4 5 9 7 4 14 14 16 22 4 21 59 132 74
147 7 8 10 18 7 23 -4 5 -2 9 4 9 5 0 15 16 22 35 7 19 17 35 22 35 4 0 6 4 3
9 -4 5 -2 11 2 13 5 1 36 47 69 100 285 455 711 868 1183 1147 74 44 140 84
145 88 6 4 17 9 25 11 8 2 17 8 18 13 2 5 8 7 13 3 5 -3 9 -1 9 5 0 10 38 27
53 23 4 -1 7 3 7 9 0 5 4 8 9 4 5 -3 15 0 23 7 7 7 18 14 23 15 6 1 42 16 80
33 39 17 71 31 73 30 2 -1 14 6 28 14 13 9 24 14 24 11 0 -3 10 0 23 7 12 7
25 13 30 14 4 1 8 2 10 4 1 1 9 3 17 5 13 2 147 47 190 63 8 3 18 6 23 7 4 2
9 4 12 5 6 3 9 4 60 14 22 4 44 11 50 14 5 3 20 7 33 8 14 2 32 6 41 10 9 4
25 8 36 10 52 10 60 12 60 14 0 3 29 8 84 15 24 2 54 8 65 12 12 4 32 8 46 9
14 1 45 5 70 8 79 11 123 16 189 20 35 3 65 7 67 9 5 5 504 -2 564 -8z"/>
<path d="M4095 3798 c-22 -6 -256 -12 -522 -15 l-483 -5 0 -44 0 -44 90 0 90
0 0 -670 0 -670 -90 0 -90 0 0 -45 0 -45 330 0 330 0 0 45 0 45 -85 0 -85 0 0
670 0 670 123 0 c139 0 183 -14 232 -71 35 -42 77 -133 100 -222 19 -71 39
-93 74 -82 25 7 37 42 50 140 7 43 25 118 41 166 34 97 37 135 14 167 -17 24
-50 27 -119 10z"/>
<path d="M5335 3798 c-22 -6 -256 -12 -522 -15 l-483 -5 0 -44 0 -44 85 0 85
0 0 -670 0 -670 -85 0 -85 0 0 -45 0 -45 330 0 330 0 0 45 0 45 -85 0 -85 0 0
670 0 670 123 0 c139 0 183 -14 232 -71 35 -42 77 -133 100 -222 19 -71 39
-93 74 -82 25 8 37 43 51 145 6 46 25 120 41 164 33 90 36 131 13 164 -17 24
-50 27 -119 10z"/>
<path d="M6601 3784 c-99 -50 -142 -145 -235 -523 -29 -119 -77 -329 -106
-468 -30 -139 -56 -250 -59 -248 -2 3 -61 261 -131 575 l-127 570 69 0 68 0 0
45 0 45 -270 0 -270 0 0 -45 0 -45 40 0 c35 0 40 -3 47 -27 4 -16 77 -336 163
-713 l157 -685 91 -3 c108 -3 99 16 77 -172 -8 -69 -18 -184 -21 -256 l-7
-130 93 8 c52 5 96 10 98 13 3 2 -3 49 -12 103 -17 104 -20 214 -9 350 l6 82
53 0 54 0 0 45 0 45 -50 0 c-27 0 -50 1 -50 3 0 19 137 687 157 762 33 129 75
235 119 301 61 92 122 114 200 70 77 -43 84 -39 84 52 0 52 7 98 22 144 26 80
21 91 -55 113 -76 23 -135 19 -196 -11z"/>
</g>
</svg>
